<?xml version="1.0" standalone="no"?><!DOCTYPE svg PUBLIC "-//W3C//DTD SVG 1.1//EN" "http://www.w3.org/Graphics/SVG/1.1/DTD/svg11.dtd"><svg t="1730270661452" class="icon" viewBox="0 0 1024 1024" version="1.1" xmlns="http://www.w3.org/2000/svg" p-id="8085" xmlns:xlink="http://www.w3.org/1999/xlink" width="200" height="200"><path d="M714.79929 565.655417l309.20071-170.969804-347.396092 14.550621 103.673179-210.984014-187.339254 132.774423 21.825933-292.831261-136.412079 241.904085L272.824156 0l89.122558 349.21492L54.564831 245.541741l245.541741 225.534636L0 529.278863l287.374778 65.477798-161.875666 285.55595 263.730018-158.238011 10.912966 301.9254 107.310835-276.461812 145.506216 218.259325-7.27531-261.91119L894.863233 800.284192l-180.063943-234.628775z" fill="#E24F1B" p-id="8086"></path><path d="M625.676732 540.191829l180.063943-83.666074-200.071048-5.456483 52.746004-120.042629-105.492008 61.840142 3.637656-161.875666-70.934281 134.59325-107.310835-138.230905 47.289521 174.60746-180.063943-45.470693 147.325044 125.499112-181.882771 41.833037 165.513322 38.195382-116.404974 180.063943 180.063944-121.861456 3.637655 158.23801 65.477797-143.687389 72.753109 107.310835-1.818828-130.955595 130.955595 58.202487-85.484902-129.136768z" fill="#F5C83A" p-id="8087"></path><path d="M558.380107 518.365897l76.390763-34.557726-85.484902-3.637656 23.64476-49.108348-45.470692 25.463588 1.818827-69.115453-30.920071 56.383659-45.470693-58.202487 20.007105 74.571936-76.390764-20.007104 61.840143 54.564831-76.390764 18.188277 70.93428 14.550622-49.108348 76.390763 74.571936-50.927176 3.637656 67.296626 27.282415-61.840142 30.920071 45.470692-1.818827-54.564831 56.383659 23.64476-36.376554-54.564831z" fill="#FFFFFF" p-id="8088"></path></svg>