<?xml version="1.0" standalone="no"?><!DOCTYPE svg PUBLIC "-//W3C//DTD SVG 1.1//EN" "http://www.w3.org/Graphics/SVG/1.1/DTD/svg11.dtd"><svg t="1730270700813" class="icon" viewBox="0 0 4188 1024" version="1.1" xmlns="http://www.w3.org/2000/svg" p-id="9156" xmlns:xlink="http://www.w3.org/1999/xlink" width="817.96875" height="200"><path d="M886.816 4.464v288.878c0 66.965-25.67 122.675-63.617 162.854h63.617v363.655c0 111.515-91.426 204.149-203.033 204.149H0V4.464h886.816zM499.723 456.196c88.17-4.464 133.836-82.496 133.836-141.648V87.054H254.28v369.235h245.444zM532.09 942.62c56.92 0 101.563-45.759 101.563-101.47V538.88H254.28v403.833h277.81z m1367.008-129.464a204.056 204.056 0 0 1-203.033 204.149H997.772V204.149C997.772 92.634 1089.197 0 1200.805 0h698.292v813.155zM1544.37 935.923c55.803 0 101.47-45.76 101.47-101.47V82.59h-292.226c-56.92 0-101.563 45.759-101.563 101.47v751.77h292.319z m1367.007-122.768a204.056 204.056 0 0 1-203.033 204.149h-698.292V204.149C2010.053 92.634 2101.48 0 2212.993 0h698.292v813.155z m-354.726 122.768c55.804 0 101.47-45.76 101.47-101.47V82.59h-292.226c-56.92 0-101.563 45.759-101.563 101.47v751.77h292.319zM3490.808 6.696l107.05 557.76L3707.14 6.696h315.757l165.086 1011.724H3953.7l-108.26-661.462-138.3 643.604h-216.425l-139.417-645.836-107.05 663.694h-234.283L3175.05 6.696h315.757z" p-id="9157" fill="#2c2c2c"></path></svg>